<?xml version="1.0" encoding="utf-8"?>
<!-- Generator: Adobe Illustrator 15.1.0, SVG Export Plug-In . SVG Version: 6.00 Build 0)  -->
<!DOCTYPE svg PUBLIC "-//W3C//DTD SVG 1.1//EN" "http://www.w3.org/Graphics/SVG/1.1/DTD/svg11.dtd">
<svg version="1.1" id="Layer_1" xmlns="http://www.w3.org/2000/svg" xmlns:xlink="http://www.w3.org/1999/xlink" x="0px" y="0px"
	 width="704px" height="150px" viewBox="0 0 704 150" enable-background="new 0 0 704 150" xml:space="preserve">
<path fill-rule="evenodd" clip-rule="evenodd" fill="#007097" d="M128.77,115.291c0,7.816-6.338,14.154-14.154,14.154H30.234
	c-7.816,0-14.154-6.337-14.154-14.154V30.911c0-7.816,6.337-14.153,14.154-14.153h84.381c7.816,0,14.154,6.337,14.154,14.153
	V115.291z"/>
<path fill-rule="evenodd" clip-rule="evenodd" fill="#FFFFFF" d="M119.056,113.917c-5.819-0.763-23.691-3.905-24.665-8.76
	c-1.081-5.394,8.052-6.136,7.819-10.418c-0.331,0.626-0.558,1.349-1.602,1.332c2.306-3.08,3.315-7.333,6.613-9.524
	c-4.748,1.911-5.388,7.265-8.719,9.215c2.174-2.411,1.674-9.35-0.198-12.098c0.43,3.096,0.645,6.129-0.824,8.392
	c0.799-5.394-0.715-13.293-3.659-14.427c2.609,2.182,3.44,9.992,1.514,13.281c-0.313-1.496,1.061-3.515-0.233-4.579
	c0.185,2.56-0.779,6.172-2.203,5.959c2.619-6.302-4.079-17.143-0.23-20.866c-3.337,1.223-5.147,3.828-5.446,7.793
	c-0.793-1.469-1.026-3.558-2.315-4.475c0.532,2.041,2.106,6.146,0.404,7.912c0.192-5.203-1.298-10.882-3.928-11.493
	c4.031,5.217,2.156,15.324,0.229,20.867c1.44-9.958-4.898-20.687-0.965-27.088c-1.64,1.166-2.955,2.625-3.954,4.374
	c0,0-0.192-0.289-0.528-0.804c-3.146-17.653-8.53-25.906-12.974-29.768C56.009,26.593,47.32,19.467,41.175,21.771
	c-6.887,2.584-8.394,16.201-4.292,32.425c-0.803,1.768-1.317,3.474-1.219,4.689c0.258,3.215,3.131,4.654,3.715,7.325
	c-4.672-2.181,0.909,0.689,2.229,2.81c1.536,2.466,2.059,6.06,3.344,8.081c0.427,0.482,0.86,0.926,1.31,1.284
	c-0.526-0.259-0.947-0.711-1.31-1.284c-2.2-2.486-4.181-6.156-7.005-6.225c4.669,3.147,6.649,9.272,11.7,11.997
	c0.213,0.305,0.43,0.617,0.646,0.913c-4.889-0.813-7.82-5.041-10.758-6.309c3.156,3.898,8.107,5.808,12.395,8.454
	c0.021,0.024,0.041,0.051,0.059,0.076c-2.095-0.355-5.685-1.219-7.843,0.001c0.616,0.196,2.126-0.598,2.104,0.311
	c-0.886,0.159-4.46-0.097-3.311,0.585c10.208-0.163,15.132,5.535,20.586,10.641c-6.557-0.81-11.777-5.435-15.439-7.979
	c1.038,1.934,4.265,3.771,4.439,5.199c-1.725-1.027-3.834-3.956-5.209-3.907c0.333,0.03,1.332,1.311,0.479,1.226
	c-1.766-2.406-2.296-0.779-3.917-3.138c0.647,6.909,5.894,8.722,10.197,11.589c-1.834-0.014-10.034,0.538-4.978,0.669
	c9.571,0.253,11.768,8.671,20.146,10.245c-4.776,0.188-9.679,0.265-12.409,2.302c0.876,0.207,2.712-0.651,2.938,0.27
	c-1.353,0.104-2.551,0.343-3.29,1.002c6.856-1.194,15.05,1.738,20.843-0.645c-3.887,2.185-10.48,4.042-11.736,7.279
	c4.361-3.906,15.481-1.826,17.608-6.746c-0.072,2.064-3.582,3.11-3.119,4.333c1.306-0.686,2.566-3.491,3.602-3.104
	c-2.248,2.606-3.894,5.756-7.573,7.066c8.005-0.85,10.658-6.528,14.022-11.571c-0.055,1.406,0.243,4.684,1.026,3.708
	c-0.97-1.665-0.454-3.667,0.211-5.25C80.42,101.821,52.085,76.668,44.659,33.3c0,0,13.455,52.309,47.396,75.331
	c0.003-0.005,0.004-0.012,0.009-0.016c0.198,0.146,0.417,0.291,0.627,0.435c0.766,0.508,1.54,1.002,2.325,1.479
	c6.17,3.629,15.224,6.901,23.376,6.763c1.806-0.031,5.715,0.528,5.725-2.382C123.338,113.222,120.833,114.149,119.056,113.917"/>
<polygon fill-rule="evenodd" clip-rule="evenodd" fill="#FFFFFF" points="42.171,32.62 52.288,75.354 78.085,106.824 
	83.037,111.914 96.239,111.221 79.369,90.692 71.03,66.496 56.152,38.795 46.124,29.394 "/>
<rect x="-8" y="-59.409" fill="none" width="1015.104" height="1189.409"/>
<g>
	<path fill="#007097" d="M183.059,120.035c-1.902,0.93-3.656,1.605-5.261,2.028c-1.606,0.422-3.106,0.634-4.5,0.634
		c-10.015,0-15.023-5.937-15.023-17.812V64.127h-11.22v-7.543h11.22V38.456h8.05v18.129h16.48v7.543h-16.48v40.061
		c0,3.888,0.58,6.698,1.743,8.431c1.162,1.733,3.158,2.599,5.99,2.599c2.07,0,4.247-0.697,6.529-2.092L183.059,120.035z"/>
</g>
<g>
	<path fill="#007097" d="M192.728,43.273c-1.564,0-2.927-0.548-4.088-1.648c-1.163-1.098-1.743-2.536-1.743-4.311
		c0-0.845,0.168-1.626,0.507-2.345c0.338-0.718,0.771-1.331,1.3-1.838c0.528-0.507,1.141-0.897,1.838-1.173
		c0.697-0.274,1.426-0.412,2.187-0.412c1.605,0,3,0.518,4.184,1.553c1.183,1.036,1.775,2.44,1.775,4.215
		c0,0.846-0.159,1.627-0.476,2.346c-0.317,0.719-0.74,1.342-1.268,1.87c-0.529,0.529-1.163,0.951-1.902,1.268
		C194.302,43.115,193.53,43.273,192.728,43.273z M188.798,121.493V56.584h8.05v64.909H188.798z"/>
	<path fill="#007097" d="M252.439,116.359c-3.846,2.198-7.533,3.856-11.061,4.976c-3.529,1.12-6.941,1.68-10.237,1.68
		c-8.875,0-16.037-3.043-21.488-9.128c-5.41-6.169-8.114-14.093-8.114-23.771c0-4.986,0.813-9.635,2.44-13.945
		c1.626-4.311,3.855-8.05,6.688-11.22c3.042-3.169,6.539-5.61,10.49-7.321c3.951-1.711,8.272-2.567,12.963-2.567
		c6.466-0.084,12.719,1.86,18.763,5.832l-4.564,6.212c-4.902-3-9.91-4.5-15.023-4.5c-6.888,0-12.53,2.515-16.924,7.543
		c-4.353,5.029-6.529,11.579-6.529,19.65c0,7.818,1.986,14.051,5.958,18.699c3.93,4.649,9.128,6.973,15.593,6.973
		c6,0,11.537-1.838,16.607-5.515L252.439,116.359z"/>
	<path fill="#007097" d="M295.479,121.493l-28.461-29.348v29.348h-8.05V26.539h8.05v58.126c4.479-4.648,8.97-9.339,13.47-14.072
		c4.5-4.732,8.99-9.402,13.47-14.009h10.585l-30.806,31.503c2.62,2.621,5.345,5.347,8.177,8.177
		c2.831,2.832,5.673,5.684,8.526,8.557c2.853,2.874,5.683,5.727,8.494,8.557c2.81,2.832,5.504,5.537,8.082,8.114H295.479z"/>
</g>
<g>
	<path fill="#007097" d="M317.035,104.188c0,3.888,0.591,6.698,1.775,8.431c1.183,1.733,3.169,2.599,5.958,2.599
		c2.113,0,5.028-1.035,8.748-3.106v8.114c-1.775,0.846-3.455,1.468-5.04,1.87c-1.584,0.401-3.053,0.603-4.405,0.603
		c-10.058,0-15.086-5.937-15.086-17.812V26.539h8.05V104.188z"/>
</g>
<g>
	<path fill="#007097" d="M342.234,90.497c0.168,3.677,0.697,7.09,1.585,10.237c0.887,3.148,2.218,5.779,3.993,7.892
		c3.803,4.564,8.958,6.846,15.467,6.846c6.676,0,13.015-2.429,19.016-7.29l3.867,6.402c-7.819,5.621-15.847,8.431-24.087,8.431
		c-8.452,0-15.255-3.021-20.411-9.064c-2.578-3.043-4.512-6.645-5.8-10.808c-1.289-4.162-1.933-8.99-1.933-14.484
		c0-4.648,0.675-8.97,2.028-12.963c1.352-3.994,3.36-7.596,6.022-10.808c2.704-3.042,5.853-5.44,9.445-7.194
		c3.591-1.753,7.5-2.631,11.727-2.631c8.155,0,14.431,2.895,18.826,8.684c4.31,5.578,6.465,13.248,6.465,23.01v3.74H342.234z
		 M380.077,82.954c-0.38-6.55-2.05-11.578-5.007-15.086c-2.958-3.507-7.016-5.261-12.17-5.261c-2.789,0-5.325,0.475-7.606,1.426
		c-2.282,0.951-4.333,2.335-6.149,4.152c-1.648,1.774-3.011,3.888-4.088,6.338c-1.078,2.452-1.892,5.261-2.44,8.431H380.077z"/>
</g>
<g>
	<path fill="#A0CF67" d="M439.202,121.493V82.827c0-7.014-1.247-12.139-3.74-15.371c-2.494-3.233-6.381-4.849-11.664-4.849
		c-7.269-0.084-13.607,4.606-19.016,14.072v44.815h-8.05V26.539h8.05v38.539c5.113-6.676,11.938-10.015,20.474-10.015
		c7.184,0,12.646,2.261,16.386,6.783c3.74,4.522,5.61,11.093,5.61,19.713v39.934H439.202z"/>
	<path fill="#A0CF67" d="M459.549,90.497c0.168,3.677,0.697,7.09,1.585,10.237c0.887,3.148,2.218,5.779,3.993,7.892
		c3.803,4.564,8.958,6.846,15.467,6.846c6.676,0,13.015-2.429,19.016-7.29l3.866,6.402c-7.818,5.621-15.847,8.431-24.087,8.431
		c-8.452,0-15.255-3.021-20.411-9.064c-2.578-3.043-4.512-6.645-5.8-10.808c-1.289-4.162-1.933-8.99-1.933-14.484
		c0-4.648,0.675-8.97,2.028-12.963c1.352-3.994,3.36-7.596,6.022-10.808c2.704-3.042,5.853-5.44,9.445-7.194
		c3.591-1.753,7.5-2.631,11.727-2.631c8.155,0,14.431,2.895,18.826,8.684c4.311,5.578,6.466,13.248,6.466,23.01v3.74H459.549z
		 M497.392,82.954c-0.38-6.55-2.05-11.578-5.007-15.086c-2.958-3.507-7.016-5.261-12.17-5.261c-2.789,0-5.325,0.475-7.606,1.426
		c-2.282,0.951-4.333,2.335-6.149,4.152c-1.648,1.774-3.011,3.888-4.088,6.338c-1.078,2.452-1.892,5.261-2.44,8.431H497.392z"/>
</g>
<g>
	<path fill="#A0CF67" d="M538.776,55.063c6.888,0,12.181,2.092,15.879,6.275c3.697,4.184,5.546,10.291,5.546,18.319v41.835h-8.05
		v-6.909c-0.719,0.761-1.67,1.584-2.853,2.472c-1.184,0.887-2.367,1.67-3.55,2.345c-4.437,2.409-9.106,3.613-14.009,3.613
		c-6.297,0-11.262-1.796-14.896-5.388c-3.719-3.55-5.578-8.071-5.578-13.565c0.338-3.507,1.246-6.581,2.726-9.223
		c1.479-2.641,3.338-4.849,5.578-6.624c2.239-1.775,4.786-3.116,7.638-4.025c2.853-0.908,5.821-1.363,8.906-1.363
		c2.662,0,5.366,0.36,8.113,1.078c2.747,0.719,5.389,1.775,7.924,3.169c0-1.225-0.011-2.482-0.031-3.771
		c-0.022-1.289-0.032-2.545-0.032-3.771c-0.296-5.493-1.596-9.688-3.898-12.583c-2.304-2.894-5.632-4.342-9.983-4.342
		c-7.185,0.085-13.628,2.726-19.333,7.923l-5.135-5.388C520.204,58.381,528.55,55.021,538.776,55.063z M519.634,103.935
		c0,3.381,1.099,6.148,3.296,8.304c2.282,2.155,5.43,3.232,9.444,3.232c5.62,0,10.227-1.436,13.819-4.31v0.063
		c1.689-1.395,3.031-2.672,4.024-3.835c0.993-1.162,1.595-2.229,1.807-3.201v-9.381c-2.62-1.69-5.229-2.916-7.828-3.677
		c-2.599-0.76-5.103-1.141-7.512-1.141c-2.367,0-4.596,0.338-6.688,1.014c-2.092,0.676-3.909,1.627-5.451,2.853
		c-1.543,1.226-2.747,2.694-3.613,4.405S519.634,101.865,519.634,103.935z"/>
</g>
<g>
	<path fill="#A0CF67" d="M577.188,104.188c0,3.888,0.591,6.698,1.774,8.431c1.183,1.733,3.17,2.599,5.959,2.599
		c2.112,0,5.028-1.035,8.747-3.106v8.114c-1.775,0.846-3.455,1.468-5.039,1.87c-1.585,0.401-3.054,0.603-4.405,0.603
		c-10.059,0-15.087-5.937-15.087-17.812V26.539h8.051V104.188z"/>
</g>
<g>
	<path fill="#A0CF67" d="M625.736,120.035c-1.901,0.93-3.655,1.605-5.261,2.028c-1.606,0.422-3.106,0.634-4.501,0.634
		c-10.015,0-15.022-5.937-15.022-17.812V64.127h-11.22v-7.543h11.22V38.456h8.05v18.129h16.481v7.543h-16.481v40.061
		c0,3.888,0.581,6.698,1.743,8.431c1.162,1.733,3.159,2.599,5.99,2.599c2.07,0,4.247-0.697,6.529-2.092L625.736,120.035z"/>
</g>
<g>
	<path fill="#A0CF67" d="M678.584,121.493V82.827c0-7.014-1.247-12.139-3.74-15.371c-2.494-3.233-6.382-4.849-11.663-4.849
		c-7.269-0.084-13.607,4.606-19.017,14.072v44.815h-8.05V26.539h8.05v38.539c5.112-6.676,11.938-10.015,20.475-10.015
		c7.184,0,12.646,2.261,16.386,6.783c3.739,4.522,5.609,11.093,5.609,19.713v39.934H678.584z"/>
</g>
<path fill="none" stroke="#7FAD41" stroke-width="4" stroke-miterlimit="10" d="M128.77,115.291c0,7.816-6.338,14.154-14.154,14.154
	H30.234c-7.816,0-14.154-6.337-14.154-14.154V30.911c0-7.816,6.337-14.153,14.154-14.153h84.381c7.816,0,14.154,6.337,14.154,14.153
	V115.291z"/>
<path fill-rule="evenodd" clip-rule="evenodd" fill="#007097" d="M51.601,41.531c0,0,0.173,49.136,41.309,72.353l2.297-2.345
	C95.207,111.539,59.982,95.173,51.601,41.531"/>
<rect x="-8" y="-59.409" fill="none" width="1015.104" height="1189.409"/>
<rect x="-8" y="-59.409" fill="none" width="1015.104" height="1189.409"/>
</svg>
